<svg width="22" height="22" viewBox="0 0 22 22" fill="none" xmlns="http://www.w3.org/2000/svg">
<rect width="22" height="22" rx="10" fill="#EC362A"/>
<path d="M14.1119 7.90713C14.0979 8.82584 13.7922 10.0697 12.3595 10.552C12.8081 9.48476 12.8766 8.46337 12.5587 7.50859C12.1339 6.2268 10.7164 5.22557 9.77326 4.68034C9.45113 4.4933 9.03793 4.72557 9.04404 5.09782C9.05627 5.77753 8.84966 6.77081 7.8466 7.77388C6.51041 9.10885 5.83376 10.4884 5.83376 11.8735C5.83376 13.6125 7.05626 15.8363 9.50126 15.8363C7.03119 13.3662 8.89001 11.2623 8.89001 11.2623C9.40712 14.8772 11.9389 15.8363 13.1688 15.8363C14.2146 15.8363 16.225 15.0722 16.225 11.8949C16.225 9.97988 15.4108 8.52632 14.7672 7.67791C14.5551 7.39796 14.1168 7.55688 14.1119 7.90713Z" fill="white"/>
</svg>
